<svg xmlns="http://www.w3.org/2000/svg" viewBox="0 0 45.94 36.1"><defs><style>.cls-1{fill:#fcf0de;}</style></defs><title>Zasób 3@</title><g id="Warstwa_2" data-name="Warstwa 2"><g id="Warstwa_2-2" data-name="Warstwa 2"><path class="cls-1" d="M41.84,36.1a4,4,0,0,0,2.69-1l-13-13-.9.64q-1.45,1.08-2.37,1.68a14.53,14.53,0,0,1-2.42,1.23,7.38,7.38,0,0,1-2.82.63H23a7.39,7.39,0,0,1-2.83-.63,14.15,14.15,0,0,1-2.42-1.23q-.9-.6-2.37-1.68l-.9-.65-13,13a4,4,0,0,0,2.69,1Z"/><path class="cls-1" d="M2.59,13.87A13.29,13.29,0,0,1,0,11.64v19.8L11.47,20Q8,17.57,2.59,13.87"/><path class="cls-1" d="M43.38,13.87c-3.5,2.36-6.46,4.4-8.91,6.1L45.94,31.44V11.64a14.24,14.24,0,0,1-2.56,2.23"/><path class="cls-1" d="M41.84,0H4.1a3.67,3.67,0,0,0-3,1.33A5.18,5.18,0,0,0,0,4.67,6,6,0,0,0,1.41,8.16a12.74,12.74,0,0,0,3,3l5.25,3.65,4.14,2.87,2.58,1.81.38.27.71.51c.56.4,1,.73,1.38,1s.82.53,1.34.84a7.18,7.18,0,0,0,1.48.69A4.08,4.08,0,0,0,23,23H23a4.18,4.18,0,0,0,1.28-.23,7.36,7.36,0,0,0,1.47-.69c.52-.31,1-.59,1.33-.84s.83-.57,1.39-1l.71-.51.38-.27,2.59-1.81,9.41-6.52A12.37,12.37,0,0,0,44.69,8,6.82,6.82,0,0,0,45.94,4.1a4,4,0,0,0-1.22-2.9A4,4,0,0,0,41.84,0"/></g></g></svg>