<svg xmlns="http://www.w3.org/2000/svg" viewBox="0 0 92.84 107.57"><defs><style>.cls-1{fill:#ff4b33;stroke-miterlimit:10;}.cls-1,.cls-2{stroke:#0053df;stroke-width:4.68px;}.cls-2{fill:none;stroke-linecap:round;stroke-linejoin:round;}.cls-3{fill:#afe7d4;}.cls-4{fill:#fcefde;}.cls-5{fill:#fffb8a;}.cls-6{fill:#d4d5d5;}.cls-7{fill:#f5df4d;}.cls-8{fill:#0053df;}</style></defs><title>Zasób 2@</title><g id="Warstwa_2" data-name="Warstwa 2"><g id="Warstwa_2-2" data-name="Warstwa 2"><circle class="cls-1" cx="70.32" cy="85.05" r="20.18"/><path class="cls-2" d="M60.79,86.19c.17.33,8.69,7.45,8.69,7.45l9.93-17.38"/><path class="cls-3" d="M17.58,88.28V54.5H7c0,7-5.27,21.09-5.27,33.4l7.71-3.31-.68,6.82Z"/><path class="cls-4" d="M44,14.06l-33.4,8.79V40.43a7,7,0,0,0,0,14.07h.09A29.76,29.76,0,0,0,17.58,72V90a12.39,12.39,0,0,1-.94,4.73L15.28,98a2.43,2.43,0,0,0,.38,2.52c2,2.3,8,4.28,15.2,4.81,8.1.58,15-.88,16.4-3.34a1.58,1.58,0,0,0,.08-1.36l-2.54-7A14.09,14.09,0,0,1,44,88.86V82.37A24.62,24.62,0,0,0,65,58V22.85Z"/><path class="cls-5" d="M28.13,56.25V51a3.53,3.53,0,0,1,3.51-3.53,8.8,8.8,0,0,1,8,5.28,8.73,8.73,0,0,0,.51-5.53,8.77,8.77,0,0,0-12.07-6,4.84,4.84,0,0,1,1.61-3.61c6.9-6.29,14.6-14.33,18.36-21.77L44,14.06l-33.4,8.79V40.43a7.06,7.06,0,0,0-6.64,9.42,7,7,0,0,0,6.64,4.65h.09A29.76,29.76,0,0,0,17.58,72V90a12.39,12.39,0,0,1-.94,4.73L15.28,98a2.4,2.4,0,0,0,.35,2.48c1.86,2.21,7.45,4.12,14.25,4.75V92.81a5.27,5.27,0,0,1,5.95-5.22,35,35,0,0,0,4.6.31A29.31,29.31,0,0,0,44,87.67l-.39-5.27A29.86,29.86,0,0,1,28.13,56.25Z"/><path class="cls-5" d="M56.25,47.46a8.79,8.79,0,0,1,8,5.28,8.79,8.79,0,1,0-16.84-3.52,8.64,8.64,0,0,0,.75,3.52,8.78,8.78,0,0,1,8-5.28Z"/><path class="cls-5" d="M45.71,1.76H29.88A26.36,26.36,0,0,0,3.52,28.13V47.46a7,7,0,0,1,7-7h7S38.67,26.37,43.73,12.74l.22,6.6L68.56,33.4V24.61A22.85,22.85,0,0,0,45.71,1.76Z"/><path class="cls-5" d="M53,3a17.6,17.6,0,0,1,3.7,14.2,71.63,71.63,0,0,1-2,8.33L68.56,33.4V24.61A22.84,22.84,0,0,0,53,3Z"/><path class="cls-5" d="M3.52,28.13V43.36h0A183.05,183.05,0,0,0,24.31,26.47a17.55,17.55,0,0,0,5.57-12.85V1.76A26.36,26.36,0,0,0,3.52,28.13Z"/><circle class="cls-6" cx="31.64" cy="43.95" r="3.52"/><circle class="cls-6" cx="56.25" cy="43.95" r="3.52"/><circle class="cls-7" cx="58.01" cy="63.28" r="1.76"/><path class="cls-8" d="M43.71,71c-2.29,0-5-1-8-2.92A32.68,32.68,0,0,1,32,65.23a1.76,1.76,0,0,1,1.17-3.07H52.5A1.76,1.76,0,0,1,53.89,65c-.19.24-4.7,6-10.18,6Zm-5.1-5.27a11.16,11.16,0,0,0,5.1,1.75,7.89,7.89,0,0,0,4.42-1.75Z"/><path class="cls-8" d="M43.71,76.34a9.86,9.86,0,0,1-2.16-.26,1.76,1.76,0,0,1,.8-3.43,5.79,5.79,0,0,0,1.36.18A5.1,5.1,0,0,0,45,72.65a1.76,1.76,0,1,1,.89,3.4,8.87,8.87,0,0,1-2.2.29Z"/><path class="cls-8" d="M45.71,0H29.88A28.16,28.16,0,0,0,1.76,28.13V47.46a8.78,8.78,0,0,0,3.51,7h0c0,2.83-.94,7-2,11.9C1.71,73.1,0,80.69,0,87.9a1.75,1.75,0,0,0,1.76,1.75,1.82,1.82,0,0,0,.72-.15l5-2.22-.4,4a1.76,1.76,0,0,0,1.75,1.93,1.7,1.7,0,0,0,.59-.1l6.41-2.29A10.52,10.52,0,0,1,15,94.09l-1.35,3.25a4.17,4.17,0,0,0,.67,4.35c2.37,2.74,8.8,4.86,16.4,5.41,1.18.08,2.38.13,3.58.13,6.38,0,12.66-1.26,14.46-4.33A3.29,3.29,0,0,0,49,100l-2.53-7a12.32,12.32,0,0,1-.74-4.21v-5A26.41,26.41,0,0,0,66.8,58V34.42l.89.51a1.76,1.76,0,0,0,2.63-1.53V24.61A24.64,24.64,0,0,0,45.71,0ZM10,61.68,7.84,83.25,3.6,85.14a114.67,114.67,0,0,1,3.06-18A86.88,86.88,0,0,0,8.72,56.06l.25,0A32.16,32.16,0,0,0,10,61.52.88.88,0,0,0,10,61.68ZM15.82,87l-5,1.78,2.06-20.54a31.9,31.9,0,0,0,2.94,4.32ZM41.2,103.1a38.75,38.75,0,0,1-10.22.49c-7.25-.52-12.53-2.51-14-4.2a.65.65,0,0,1-.08-.7l.8-1.92a34.57,34.57,0,0,0,12.9,3.29c1.21.09,2.4.14,3.55.14a28.35,28.35,0,0,0,10.52-1.7l1,2.72c-.37.46-1.64,1.29-4.47,1.88Zm1.94-8.83.34.92C40.75,96.42,36,97,30.89,96.55c-4.8-.37-9.33-1.57-12-3.13A13.67,13.67,0,0,0,19.34,90V76.3a31.5,31.5,0,0,0,21.09,8.08c.59,0,1.18,0,1.76-.06v4.54a15.85,15.85,0,0,0,1,5.41ZM63.28,58A22.88,22.88,0,0,1,40.43,80.86,28.15,28.15,0,0,1,12.31,52.74a1.76,1.76,0,0,0-3.49-.3,5.27,5.27,0,0,1,1.73-10.25h2.69l-1.32,1A1.76,1.76,0,0,0,13,46.37,1.78,1.78,0,0,0,14,46s2-1.47,4.91-3.83h4.87A10.54,10.54,0,0,0,39.32,56.45a1.75,1.75,0,0,0,.25,2.25,7,7,0,0,0,9.45,0,1.78,1.78,0,0,0,.55-1.33,10.51,10.51,0,0,0,13.71-.29V58ZM35.57,44.18a1.76,1.76,0,0,0-2.4.65,1.78,1.78,0,0,1-1.53.88,1.76,1.76,0,0,1,0-3.52,7,7,0,1,1-5.24,2.35,5.28,5.28,0,0,0,9.81,2.05,1.76,1.76,0,0,0-.64-2.41Zm5.61.55a5.29,5.29,0,0,1,5.53,0,10.55,10.55,0,0,0,1.2,10.93,1.75,1.75,0,0,0-1.3.48A3.4,3.4,0,0,1,44.3,57,3.36,3.36,0,0,1,42,56.14a1.76,1.76,0,0,0-2.33-.08,10.5,10.5,0,0,0,1.52-11.33ZM56.25,56.25A7,7,0,0,1,51,44.54a5.28,5.28,0,0,0,9.81,2.05,1.76,1.76,0,1,0-3-1.76,1.78,1.78,0,0,1-1.53.88,1.76,1.76,0,0,1,0-3.52,7,7,0,0,1,0,14.06ZM66.8,30.37l-9.67-5.53a1.77,1.77,0,0,0-2.46.76,1.79,1.79,0,0,0,.76,2.32l7.86,4.49v2.06a43.65,43.65,0,0,0-11-1.6,1.76,1.76,0,0,0-.07,3.52,39.16,39.16,0,0,1,11.1,1.76v.52h-7a10.55,10.55,0,0,0-7.53,3.17,8.79,8.79,0,0,0-9.55,0,10.52,10.52,0,0,0-7.53-3.17H23.16l.5-.43a83.25,83.25,0,0,1,14.9-1.85,1.81,1.81,0,0,0,1.78-1.67,1.77,1.77,0,0,0-1.79-1.85,75.72,75.72,0,0,0-9.85.88A97.08,97.08,0,0,0,41.9,19.24,42.88,42.88,0,0,1,39,27.3a1.8,1.8,0,0,0,.67,2.34,1.71,1.71,0,0,0,.88.25,1.76,1.76,0,0,0,1.58-1,51.32,51.32,0,0,0,4.17-13.55,7.07,7.07,0,0,0-1.55-5.82A7,7,0,0,0,39.51,7a1.8,1.8,0,0,0-1.85,1.68,1.75,1.75,0,0,0,1.75,1.84,3.8,3.8,0,0,1,1.51.31,1.54,1.54,0,0,1,.74,2.1c-4.75,9.12-16.77,19.8-24,25.71H12.6c1.92-1.52,4-3.22,6.08-5a1.79,1.79,0,0,0,.26-2.48,1.75,1.75,0,0,0-2.51-.22c-4.18,3.62-8.21,6.76-11.16,9V28.13A24.61,24.61,0,0,1,29.88,3.52h9.53a10.48,10.48,0,0,1,8.06,3.76A10.61,10.61,0,0,1,49.8,16c-1.92,10.85-5.52,16.41-5.56,16.47a1.76,1.76,0,0,0,1.46,2.73,1.78,1.78,0,0,0,1.47-.78c.16-.25,4-6.16,6.09-17.81A14.09,14.09,0,0,0,49,3.77,21.13,21.13,0,0,1,66.8,24.61v5.76Z"/></g></g></svg>