<svg xmlns="http://www.w3.org/2000/svg" viewBox="0 0 48.13 48.54"><defs><style>.cls-1{fill:#fcf0de;}</style></defs><title>Zasób 6@</title><g id="Warstwa_2" data-name="Warstwa 2"><g id="Warstwa_2-2" data-name="Warstwa 2"><path class="cls-1" d="M46.88,0H1.25A1.25,1.25,0,0,0,0,1.25v46a1.26,1.26,0,0,0,1.25,1.26H16.42a1.12,1.12,0,0,0,1.23-1c.07-1.69,0-3.38,0-5a32.92,32.92,0,0,1-3.54.14,5.77,5.77,0,0,1-5.51-3.71,7.07,7.07,0,0,0-2.91-3.58A2.8,2.8,0,0,1,5,34.7c-.26-.31-.21-.62.2-.7a3.32,3.32,0,0,1,1.29-.07,5.41,5.41,0,0,1,3.61,2.67,5.45,5.45,0,0,0,7.26,2.27.75.75,0,0,0,.41-.39,6.25,6.25,0,0,1,1.57-3.22c-1-.18-1.91-.32-2.82-.53A11.27,11.27,0,0,1,9.9,30.9a11.76,11.76,0,0,1-2.33-6c-.46-3.42-.05-6.62,2.3-9.35A.74.74,0,0,0,10,15a9.5,9.5,0,0,1,.09-5.73c.3-1,.39-1.05,1.41-.91l.18,0a15.58,15.58,0,0,1,5.53,2.39,1.28,1.28,0,0,0,.85.17,25.83,25.83,0,0,1,12.39,0,1.23,1.23,0,0,0,.79-.14c.94-.49,1.84-1.07,2.8-1.53a7.68,7.68,0,0,1,3.53-.93.84.84,0,0,1,.64.41,9.54,9.54,0,0,1,.31,6.13,1.14,1.14,0,0,0,.15.76,19.7,19.7,0,0,1,1.8,3.26,13.73,13.73,0,0,1-.83,10.35c-1.43,3-4.09,4.58-7.23,5.37-1.06.27-2.15.44-3.29.66,1.5,1.57,1.73,3.48,1.71,5.48s0,4.14,0,6.21c0,1,.44,1.55,1.2,1.58H48.13V1.25A1.25,1.25,0,0,0,46.88,0"/></g></g></svg>