<svg xmlns="http://www.w3.org/2000/svg" viewBox="0 0 48.13 48.13"><defs><style>.cls-1{fill:#fcf0de;}</style></defs><title>Zasób 5@</title><g id="Warstwa_2" data-name="Warstwa 2"><g id="Warstwa_2-2" data-name="Warstwa 2"><path class="cls-1" d="M42.55,39.6a1.21,1.21,0,0,1-1.2,1.21H36.54a1.21,1.21,0,0,1-1.2-1.21V30.73A21.48,21.48,0,0,0,34.88,25a4,4,0,0,0-1.5-2,4.28,4.28,0,0,0-2.5-.71,5.8,5.8,0,0,0-3.36,1,5.16,5.16,0,0,0-2,2.72,23.41,23.41,0,0,0-.55,6.26v7.3a1.21,1.21,0,0,1-1.2,1.21H18.92a1.21,1.21,0,0,1-1.2-1.21v-21a1.2,1.2,0,0,1,1.2-1.2h4.29a1.2,1.2,0,0,1,1.21,1.2v1.6c0,.66.32.77.77.28a10.64,10.64,0,0,1,8.2-3.7,10.84,10.84,0,0,1,4.36.86,7.28,7.28,0,0,1,3,2.19,8,8,0,0,1,1.41,3,22.8,22.8,0,0,1,.4,4.85ZM12.79,12.5a1.2,1.2,0,0,1-1.21,1.2H6.78a1.2,1.2,0,0,1-1.2-1.2V8.23A1.2,1.2,0,0,1,6.78,7h4.8a1.21,1.21,0,0,1,1.21,1.2Zm0,27.1a1.21,1.21,0,0,1-1.21,1.21H6.78a1.21,1.21,0,0,1-1.2-1.21v-21a1.2,1.2,0,0,1,1.2-1.2h4.8a1.2,1.2,0,0,1,1.21,1.2ZM46.33,0H1.8A1.81,1.81,0,0,0,0,1.8V46.33a1.81,1.81,0,0,0,1.8,1.8H46.33a1.81,1.81,0,0,0,1.8-1.8V1.8A1.81,1.81,0,0,0,46.33,0"/></g></g></svg>