<svg xmlns="http://www.w3.org/2000/svg" viewBox="0 0 48.13 48.13"><defs><style>.cls-1{fill:#fcf0de;}</style></defs><title>Zasób 4@</title><g id="Warstwa_2" data-name="Warstwa 2"><g id="Warstwa_2-2" data-name="Warstwa 2"><path class="cls-1" d="M39.72,26.34a39.62,39.62,0,0,1-5.78,7.09,39.32,39.32,0,0,1-7.1,5.79C22.16,42.11,15.61,44.8,10.31,42a8.4,8.4,0,1,1,11.45-8,6.78,6.78,0,0,0,.63-.36l.51-.31a27.88,27.88,0,0,0,6.3-4.67,28,28,0,0,0,4.67-6.31l.31-.51c0-.07.09-.15.13-.21A8.4,8.4,0,0,1,35.4,4.94c4.62,0,7.83,3.49,8.25,7.9,0,.17,0,.34.05.51.28,4.6-1.6,9.14-4,13M45.44,0H2.68A2.68,2.68,0,0,0,0,2.68V45.45a2.68,2.68,0,0,0,2.68,2.68H45.45a2.68,2.68,0,0,0,2.68-2.68V2.68A2.68,2.68,0,0,0,45.44,0"/></g></g></svg>